# xmcd CD database file
#
# Track frame offsets:
#	150
#	20700
#	47025
#	59550
#	77325
#	89175
#	98700
#	118425
#	137550
#	158325
#	190350
#	209400
#	234450
#	246375
#	257550
#	276825
#	287250
#	300900
#	314175
#
# Disc length: 4446 seconds
#
# Revision: 1
# Processed by: cddbd v1.5.1PL0 Copyright (c) Steve Scherf et al.
# Submitted via: freeDBTagger 0.5
#
DISCID=13115c13
DTITLE=Various Artist - the Ultimate Grammy Box -Disc4
DYEAR=1999
DGENRE=misc
TTITLE0=(Sheryl Crow)-All I Wanna Do
TTITLE1=(Steve Winwood)-Higher Love
TTITLE2=(Astrud Gilberto, Stan Getz)-The Girl from Ipanema
TTITLE3=(Chicago)-If You Leave Me Now
TTITLE4=(Ella Fitzgerald)-A-Tisket, A-Tasket
TTITLE5=(Henry Mancini)-Theme from Peter Gunn
TTITLE6=(Bruce Springsteen)-The Ghost of Tom Joad
TTITLE7=(Vince Gill)-When I Call Your Name
TTITLE8=(Gladys Knight and the Pips)-Midnight Train to Georgia
TTITLE9=(John Coltrane)-Lazy Bird
TTITLE10=(Luther Vandross)-Your Secret Love
TTITLE11=(Bonnie Raitt)-I Can't Make You Love Me
TTITLE12=(Tammy Wynette)-Stand by Your Man
TTITLE13=(Yankovic, Frankie)-Just Because
TTITLE14=(Michael Bolton)-How Am I Supposed to Live Without You
TTITLE15=(Woody Guthrie)-This Land Is Your Land
TTITLE16=(Monroe, Bill and His Blue Grass Boys)-Blue Moon of Kentucky
TTITLE17=(Peter, Paul And Mary)-Blowin' in the Wind
TTITLE18=(Dionne Warwick, Elton John, Gladys Knight, Stevie Wonder)-That'
EXTD=
EXTT0=
EXTT1=
EXTT2=
EXTT3=
EXTT4=
EXTT5=
EXTT6=
EXTT7=
EXTT8=
EXTT9=
EXTT10=
EXTT11=
EXTT12=
EXTT13=
EXTT14=
EXTT15=
EXTT16=
EXTT17=
EXTT18=
PLAYORDER=
